<?xml version="1.0" standalone="no"?>
<!DOCTYPE svg PUBLIC "-//W3C//DTD SVG 20010904//EN"
 "http://www.w3.org/TR/2001/REC-SVG-20010904/DTD/svg10.dtd">
<svg version="1.0" xmlns="http://www.w3.org/2000/svg"
 width="600.000000pt" height="600.000000pt" viewBox="0 0 600.000000 600.000000"
 preserveAspectRatio="xMidYMid meet">

<g transform="translate(0.000000,600.000000) scale(0.100000,-0.100000)"
fill="#000000" stroke="none">
<path d="M1797 5404 c-88 -21 -165 -63 -234 -128 -72 -67 -120 -142 -156 -241
-43 -124 -52 -195 -51 -420 0 -220 12 -328 59 -574 14 -69 24 -126 22 -127 -1
-1 -38 -12 -82 -24 -234 -65 -507 -183 -659 -284 -225 -150 -372 -357 -392
-554 -9 -86 11 -184 58 -281 33 -69 57 -101 132 -176 172 -173 423 -311 803
-441 76 -26 139 -48 141 -50 2 -1 -8 -46 -22 -100 -92 -365 -110 -692 -52
-918 73 -285 244 -462 479 -498 190 -29 433 53 707 237 104 70 323 243 409
324 l54 50 86 -81 c371 -352 684 -517 980 -518 201 0 354 76 455 228 146 220
171 538 85 1055 -17 98 -34 188 -38 200 -8 20 1 25 178 83 273 90 393 145 561
257 97 65 245 214 293 297 106 182 112 366 20 544 -50 95 -187 233 -313 316
-154 101 -475 245 -701 315 l-56 18 29 116 c92 376 102 723 27 951 -97 294
-307 454 -574 437 -255 -16 -540 -169 -923 -494 l-123 -105 -97 94 c-405 388
-803 565 -1105 492z m1634 -1566 c30 -15 65 -38 77 -51 33 -35 389 -661 402
-705 14 -50 12 -109 -5 -156 -23 -67 -368 -658 -404 -694 -71 -72 -70 -72
-510 -72 -283 0 -405 3 -435 12 -80 24 -127 87 -319 424 -194 341 -208 377
-188 466 13 62 353 662 404 716 43 45 87 71 139 82 24 4 210 8 413 7 l370 -2
56 -27z"/>
</g>
</svg>
